<svg width="1896" height="824" viewBox="0 0 1896 824" fill="none" xmlns="http://www.w3.org/2000/svg">
<g clip-path="url(#clip0_3_3)">
<path d="M-445 -1684H2275V2516H-445V-1684Z" stroke="white" stroke-width="3"/>
<path d="M-445 416H2275" stroke="white" stroke-width="3"/>
<path d="M-445 -1604C-423.783 -1604 -403.434 -1612.43 -388.431 -1627.43C-373.429 -1642.43 -365 -1662.78 -365 -1684M2195 -1684C2195 -1662.78 2203.43 -1642.43 2218.43 -1627.43C2233.43 -1612.43 2253.78 -1604 2275 -1604M2275 2436C2253.78 2436 2233.43 2444.43 2218.43 2459.43C2203.43 2474.43 2195 2494.78 2195 2516M-365 2516C-365 2494.78 -373.429 2474.43 -388.431 2459.43C-403.434 2444.43 -423.783 2436 -445 2436" stroke="white" stroke-width="3"/>
<path d="M915 782C1117.14 782 1281 618.14 1281 416C1281 213.86 1117.14 50 915 50C712.86 50 549 213.86 549 416C549 618.14 712.86 782 915 782Z" stroke="white" stroke-width="3"/>
</g>
<defs>
<clipPath id="clip0_3_3">
<rect width="1896" height="824" fill="white"/>
</clipPath>
</defs>
</svg>
