<svg width="2960" height="4440" viewBox="0 0 2960 4440" fill="none" xmlns="http://www.w3.org/2000/svg">
<path d="M120 120H2840V4320H120V120Z" stroke="white" stroke-width="3"/>
<path d="M120 2220H2840" stroke="white" stroke-width="3"/>
<path d="M1480 2586C1682.14 2586 1846 2422.14 1846 2220C1846 2017.86 1682.14 1854 1480 1854C1277.86 1854 1114 2017.86 1114 2220C1114 2422.14 1277.86 2586 1480 2586Z" stroke="white" stroke-width="3"/>
<path d="M673.6 120V780H2286.4V120" stroke="white" stroke-width="3"/>
<path d="M1113.6 120V340H1846.4V120" stroke="white" stroke-width="3"/>
<path d="M1189.32 780C1223.49 824.655 1267.48 860.838 1317.89 885.742C1368.3 910.646 1423.77 923.6 1480 923.6C1536.23 923.6 1591.7 910.646 1642.11 885.742C1692.52 860.838 1736.51 824.655 1770.68 780" stroke="white" stroke-width="3"/>
<path d="M2286.4 4320V3660H673.6V4320" stroke="white" stroke-width="3"/>
<path d="M1846.4 4320V4100H1113.6V4320" stroke="white" stroke-width="3"/>
<path d="M1770.68 3660C1736.51 3615.34 1692.52 3579.16 1642.11 3554.26C1591.7 3529.35 1536.23 3516.4 1480 3516.4C1423.77 3516.4 1368.3 3529.35 1317.89 3554.26C1267.48 3579.16 1223.49 3615.34 1189.32 3660" stroke="white" stroke-width="3"/>
<path d="M120 200C141.217 200 161.566 191.571 176.569 176.569C191.571 161.566 200 141.217 200 120M2760 120C2760 141.217 2768.43 161.566 2783.43 176.569C2798.43 191.571 2818.78 200 2840 200M2840 4240C2818.78 4240 2798.43 4248.43 2783.43 4263.43C2768.43 4278.43 2760 4298.78 2760 4320M200 4320C200 4298.78 191.571 4278.43 176.569 4263.43C161.566 4248.43 141.217 4240 120 4240" stroke="white" stroke-width="3"/>
</svg>
