<svg width="1896" height="930" viewBox="0 0 1896 930" fill="none" xmlns="http://www.w3.org/2000/svg">
<g clip-path="url(#clip0_3_3)">
<path d="M-412 -3329H2308V871H-412V-3329Z" stroke="white" stroke-width="3"/>
<path d="M1754.4 871V211H141.6V871" stroke="white" stroke-width="3"/>
<path d="M1314.4 871V651H581.6V871" stroke="white" stroke-width="3"/>
<path d="M1238.68 211C1204.51 166.34 1160.52 130.16 1110.11 105.26C1059.7 80.35 1004.23 67.3999 948 67.3999C891.77 67.3999 836.3 80.35 785.89 105.26C735.48 130.16 691.49 166.34 657.32 211" stroke="white" stroke-width="3"/>
<path d="M-412 -3249C-390.783 -3249 -370.434 -3257.43 -355.431 -3272.43C-340.429 -3287.43 -332 -3307.78 -332 -3329M2228 -3329C2228 -3307.78 2236.43 -3287.43 2251.43 -3272.43C2266.43 -3257.43 2286.78 -3249 2308 -3249M2308 791C2286.78 791 2266.43 799.43 2251.43 814.43C2236.43 829.43 2228 849.78 2228 871M-332 871C-332 849.78 -340.429 829.43 -355.431 814.43C-370.434 799.43 -390.783 791 -412 791" stroke="white" stroke-width="3"/>
</g>
<defs>
<clipPath id="clip0_3_3">
<rect width="1896" height="930" fill="white"/>
</clipPath>
</defs>
</svg>
