<svg width="1810" height="938" viewBox="0 0 1810 938" fill="none" xmlns="http://www.w3.org/2000/svg">
<g clip-path="url(#clip0_1_13)">
<path d="M83.6 65V725H1696.4V65" stroke="white" stroke-width="3"/>
<path d="M-470 65H2250V4265H-470V65Z" stroke="white" stroke-width="3"/>
<path d="M-470 145C-448.783 145 -428.434 136.571 -413.431 121.569C-398.429 106.566 -390 86.217 -390 65M2170 65C2170 86.217 2178.43 106.566 2193.43 121.569C2208.43 136.571 2228.78 145 2250 145M2250 4185C2228.78 4185 2208.43 4193.43 2193.43 4208.43C2178.43 4223.43 2170 4243.78 2170 4265M-390 4265C-390 4243.78 -398.429 4223.43 -413.431 4208.43C-428.434 4193.43 -448.783 4185 -470 4185" stroke="white" stroke-width="3"/>
<path d="M523.6 65V285H1256.4V65" stroke="white" stroke-width="3"/>
<path d="M599.32 725C633.49 769.655 677.48 805.838 727.89 830.742C778.3 855.646 833.77 868.6 890 868.6C946.23 868.6 1001.7 855.646 1052.11 830.742C1102.52 805.838 1146.51 769.655 1180.68 725" stroke="white" stroke-width="3"/>
</g>
<defs>
<clipPath id="clip0_1_13">
<rect width="1810" height="938" fill="white"/>
</clipPath>
</defs>
</svg>
